<svg width="16" height="16" viewBox="0 0 16 16" fill="none" xmlns="http://www.w3.org/2000/svg">
<path d="M15.5247 14.5904L11.7972 10.8628C12.813 9.62048 13.3124 8.03522 13.1922 6.43495C13.0719 4.83469 12.3412 3.34185 11.1512 2.26523C9.96113 1.18861 8.40281 0.610572 6.79853 0.650684C5.19426 0.690796 3.66677 1.34599 2.53202 2.48074C1.39727 3.61548 0.74208 5.14297 0.701968 6.74725C0.661857 8.35152 1.23989 9.90985 2.31651 11.0999C3.39314 12.2899 4.88597 13.0206 6.48624 13.1409C8.08651 13.2611 9.67177 12.7617 10.9141 11.7459L14.6417 15.4734C14.7595 15.5872 14.9172 15.6501 15.081 15.6487C15.2447 15.6473 15.4013 15.5816 15.5171 15.4658C15.6329 15.35 15.6986 15.1934 15.7 15.0297C15.7014 14.8659 15.6385 14.7082 15.5247 14.5904ZM6.96487 11.9095C5.97677 11.9095 5.01087 11.6165 4.1893 11.0675C3.36773 10.5186 2.72739 9.73831 2.34926 8.82543C1.97114 7.91255 1.8722 6.90804 2.06497 5.93893C2.25774 4.96983 2.73355 4.07964 3.43224 3.38095C4.13093 2.68227 5.02111 2.20645 5.99022 2.01368C6.95933 1.82092 7.96384 1.91985 8.87672 2.29798C9.7896 2.67611 10.5698 3.31644 11.1188 4.13801C11.6678 4.95958 11.9608 5.92549 11.9608 6.91358C11.9593 8.23812 11.4324 9.50798 10.4959 10.4446C9.55927 11.3812 8.28941 11.908 6.96487 11.9095Z" fill="white"/>
</svg>
